# xmcd CD database file
#
# Track frame offsets:
#	150
#	12540
#	25049
#	37334
#	49087
#	60543
#	70515
#	83058
#	94425
#	106747
#
# Disc length: 1587 seconds
#
# Revision: 0
# Processed by: cddbd v1.5.2PL0 Copyright (c) Steve Scherf et al.
# Submitted via: CDex 1.51
#
DISCID=7c06310a
DTITLE=Grandpa Jones - Mountain Dew
DYEAR=2008
DGENRE=Country
TTITLE0=Mountain Dew
TTITLE1=My Darling's Not My Darling Anymore
TTITLE2=Goin' Down Town
TTITLE3=I Don't Know Gee From Haw
TTITLE4=Chicken Don't Roost Too High
TTITLE5=Fast Moving Freight Train
TTITLE6=She's Gone And Left Another Broken Heart
TTITLE7=My Little Nagging Wife
TTITLE8=Are There Tears Behind Your Smiles
TTITLE9=Stay In The Wagon Yard
EXTD=YEAR: 2008
EXTT0=
EXTT1=
EXTT2=
EXTT3=
EXTT4=
EXTT5=
EXTT6=
EXTT7=
EXTT8=
EXTT9=
PLAYORDER=
